<svg xmlns="http://www.w3.org/2000/svg" viewBox="0 0 315 215" class="svg-logo" width="215" height="85" style="height: auto;"><rect rx="0" ry="0" width="100%" height="80%" fill="rgba(255,255,255, 1.0)"></rect><g data-element="wrapper" transform="translate(38.75000762939307 53.749998092650365) scale(0.8000000000000093)"><g><g data-element="icon" transform="scale(0.1378193602385594) translate(1931.075228744885 322.14018957540975)"><path id="color_x5F_2" fill="#B4B738" d="M7.105,518.027c53.521-36.568,163.347-61.662,290.235-61.662    c126.888,0,236.714,25.094,290.235,61.662c-67.807-25.912-172.569-42.553-290.235-42.553    C179.675,475.475,74.912,492.115,7.105,518.027z"></path> <path id="color_x5F_1" fill="#646683" d="M414.688,133.352c-42.461-34.341-100.093-36.935-141.789,0    c-0.137-11.366-0.202-16.871-0.332-27.623c39.595-38.81,96.923-35.89,137.439,0C411.83,116.481,412.763,121.986,414.688,133.352z     M417.967,152.687c-43.82-33.178-101.683-35.548-144.837,0c0.142,11.844,0.214,17.944,0.365,30.604    c45.455-33.171,103.687-31.15,149.658,0C421.008,170.63,419.974,164.53,417.967,152.687z M426.814,204.891    c-55.385-21.355-98.422-36.378-153.061,0c0.159,13.271,0.241,20.135,0.413,34.422c56.856-32.227,101.129-19.252,158.483,0    C430.229,225.025,429.064,218.161,426.814,204.891z M436.79,263.739c-58.604-17.559-104.073-29.042-162.332,0    c0.181,15.032,0.273,22.828,0.468,39.079c66.224-16.68,102.001-16.012,168.488,0C440.659,286.567,439.338,278.771,436.79,263.739z     M448.129,330.629c-65.803-13.051-107.231-13.506-172.87,0c0.204,17.129,0.312,26.024,0.533,44.574    c64.248-8.512,115.591-8.318,179.892-0.002C452.54,356.653,451.031,347.758,448.129,330.629z M148.062,451.279    c8.99-74.707,17.993-149.411,26.897-224.129c8.677-3.495,13.384-4.689,22.755-5.716c-6.3,75.013-12.614,150.022-18.927,225.035    c6.759-0.915,13.625-1.754,20.596-2.514c4.684-74.321,9.369-148.642,14.057-222.962c7.386,0.396,11.056,0.965,17.982,2.899    c-2.713,72.596-5.355,145.194-8.004,217.794c8.524-0.686,17.168-1.264,25.936-1.712c0-69.462,0-138.925,0-208.388    c0-4.819,0-7.186,0-11.855c-6.32-4.163-9.932-5.715-17.481-7.881c-6.793-1.948-10.406-2.53-17.669-2.952    c-6.153-0.356-9.296-0.264-15.478,0.469c-9.22,1.091-13.855,2.221-22.341,5.799c-3.729,1.574-5.541,2.483-8.992,4.565    c-0.652,4.669-0.982,7.036-1.655,11.855c-10.356,74.07-20.714,148.142-31.07,222.214    C139.061,452.921,143.541,452.088,148.062,451.279z M297.341,438.753c63.179,0,122.12,6.225,171.993,16.984    c-3.338-19.698-5.068-29.915-8.268-48.782c-61.241-7.354-123.66-7.471-184.895,0c0.192,16.19,0.312,19.408,0.49,32.034    C283.501,438.842,290.391,438.753,297.341,438.753z"></path></g><text transform="translate(-198 109.9000015258789)" fill="rgba(35, 129, 120, 1.0)" font-family="Courgette" font-size="114" data-element="company-name" dx="0 0 0 0 0 0 0 0 0">RealSpace</text></g></g></svg>